<?xml version="1.0" encoding="utf-8"?>
<!-- Generator: Adobe Illustrator 23.1.0, SVG Export Plug-In . SVG Version: 6.00 Build 0)  -->
<svg version="1.1" xmlns="http://www.w3.org/2000/svg" xmlns:xlink="http://www.w3.org/1999/xlink" x="0px" y="0px"
	 viewBox="0 0 257.6 139.1" style="enable-background:new 0 0 257.6 139.1;" xml:space="preserve">
<style type="text/css">
	.st0{fill:#6C63FF;}
	.st1{fill:#FFFFFF;}
	.st2{display:none;}
	.st3{display:inline;fill:#6C63FF;}
	.st4{display:inline;fill:#FFFFFF;}
</style>
<g id="orjinal">
	<title>intelligence-game-icon-mor</title>
	<rect id="_lkV064ZWNzvp39Y5MFM8q" class="st0" width="257.6" height="139.1"/>
	<path id="_pRvhvWZWmtkEIYKovN-Zg" class="st1" d="M79.4,31.2c-21,0-38,17-38,38c0,21,17,38,38,38c18.7,0,34.6-13.6,37.5-32h21
		c3.3,20.7,22.8,34.8,43.5,31.5c20.7-3.3,34.8-22.8,31.5-43.5c-3-18.4-18.9-32-37.5-32H79.4z M79.4,49.2c2.2,0,4,1.8,4,4v12h12
		c2.2,0,4,1.8,4,4c0,2.2-1.8,4-4,4h-12v12c0,2.2-1.8,4-4,4c-2.2,0-4-1.8-4-4v-12h-12c-2.2,0-4-1.8-4-4c0-2.2,1.8-4,4-4h12v-12
		C75.4,51,77.1,49.2,79.4,49.2C79.4,49.2,79.4,49.2,79.4,49.2z M175.4,49.2c3.3,0,6,2.7,6,6c0,3.3-2.7,6-6,6c-3.3,0-6-2.7-6-6l0,0
		C169.4,51.9,172.1,49.2,175.4,49.2L175.4,49.2z M161.4,63.2c3.3,0,6,2.7,6,6s-2.7,6-6,6c-3.3,0-6-2.7-6-6l0,0
		C155.4,65.9,158.1,63.2,161.4,63.2L161.4,63.2z M189.4,63.2c3.3,0,6,2.7,6,6s-2.7,6-6,6c-3.3,0-6-2.7-6-6l0,0
		C183.4,65.9,186.1,63.2,189.4,63.2L189.4,63.2z M175.4,77.2c3.3,0,6,2.7,6,6c0,3.3-2.7,6-6,6c-3.3,0-6-2.7-6-6l0,0
		C169.4,79.9,172.1,77.2,175.4,77.2L175.4,77.2z"/>
</g>
<g id="logo-circle-full" class="st2">
	<title>intelligence-game-icon-mor</title>
	<ellipse class="st3" cx="172.6" cy="70.5" rx="128.8" ry="69.5"/>
	<rect id="_lkV064ZWNzvp39Y5MFM8q_2_" x="43.8" y="1" class="st0" width="257.6" height="139.1"/>
	<path id="_pRvhvWZWmtkEIYKovN-Zg_2_" class="st4" d="M123.2,32.2c-21,0-38,17-38,38s17,38,38,38c18.7,0,34.6-13.6,37.5-32h21
		c3.3,20.7,22.8,34.8,43.5,31.5c20.7-3.3,34.8-22.8,31.5-43.5c-3-18.4-18.9-32-37.5-32H123.2z M123.2,50.2c2.2,0,4,1.8,4,4v12h12
		c2.2,0,4,1.8,4,4c0,2.2-1.8,4-4,4h-12v12c0,2.2-1.8,4-4,4c-2.2,0-4-1.8-4-4v-12h-12c-2.2,0-4-1.8-4-4c0-2.2,1.8-4,4-4h12v-12
		C119.2,52,120.9,50.2,123.2,50.2C123.1,50.2,123.2,50.2,123.2,50.2z M219.2,50.2c3.3,0,6,2.7,6,6s-2.7,6-6,6c-3.3,0-6-2.7-6-6l0,0
		C213.2,52.9,215.9,50.2,219.2,50.2L219.2,50.2z M205.2,64.2c3.3,0,6,2.7,6,6s-2.7,6-6,6c-3.3,0-6-2.7-6-6l0,0
		C199.2,66.9,201.9,64.2,205.2,64.2L205.2,64.2z M233.2,64.2c3.3,0,6,2.7,6,6s-2.7,6-6,6c-3.3,0-6-2.7-6-6l0,0
		C227.2,66.9,229.9,64.2,233.2,64.2L233.2,64.2z M219.2,78.2c3.3,0,6,2.7,6,6s-2.7,6-6,6c-3.3,0-6-2.7-6-6l0,0
		C213.2,80.9,215.9,78.2,219.2,78.2L219.2,78.2z"/>
</g>
<g id="logo-circle-32" class="st2">
	<title>intelligence-game-icon-mor</title>
	<ellipse class="st3" cx="171.2" cy="70.2" rx="62.8" ry="63.8"/>
	<rect id="_lkV064ZWNzvp39Y5MFM8q_1_" x="43.8" y="1" class="st0" width="257.6" height="139.1"/>
	<path id="_pRvhvWZWmtkEIYKovN-Zg_1_" class="st4" d="M151.1,54.3c-8.8,0-15.9,7.1-15.9,15.9c0,8.8,7.1,15.9,15.9,15.9
		c7.8,0,14.5-5.7,15.7-13.4h8.8c1.4,8.7,9.5,14.6,18.2,13.2c8.7-1.4,14.6-9.5,13.2-18.2c-1.2-7.7-7.9-13.4-15.7-13.4H151.1z
		 M151.1,61.8c0.9,0,1.7,0.7,1.7,1.7v5h5c0.9,0,1.7,0.7,1.7,1.7c0,0.9-0.7,1.7-1.7,1.7h-5v5c0,0.9-0.7,1.7-1.7,1.7s-1.7-0.7-1.7-1.7
		v-5h-5c-0.9,0-1.7-0.7-1.7-1.7c0-0.9,0.7-1.7,1.7-1.7h5v-5C149.4,62.6,150.2,61.8,151.1,61.8C151.1,61.8,151.1,61.8,151.1,61.8z
		 M191.3,61.8c1.4,0,2.5,1.1,2.5,2.5s-1.1,2.5-2.5,2.5c-1.4,0-2.5-1.1-2.5-2.5l0,0C188.8,62.9,189.9,61.8,191.3,61.8L191.3,61.8z
		 M185.4,67.6c1.4,0,2.5,1.1,2.5,2.5c0,1.4-1.1,2.5-2.5,2.5c-1.4,0-2.5-1.1-2.5-2.5l0,0C182.9,68.8,184,67.7,185.4,67.6L185.4,67.6z
		 M197.2,67.6c1.4,0,2.5,1.1,2.5,2.5c0,1.4-1.1,2.5-2.5,2.5s-2.5-1.1-2.5-2.5l0,0C194.7,68.8,195.8,67.7,197.2,67.6L197.2,67.6z
		 M191.3,73.5c1.4,0,2.5,1.1,2.5,2.5s-1.1,2.5-2.5,2.5c-1.4,0-2.5-1.1-2.5-2.5l0,0C188.8,74.6,189.9,73.5,191.3,73.5L191.3,73.5z"/>
</g>
</svg>
