<svg id="_2j8lttlXnY7SuwgulLE6v" data-name=" 2j8lttlXnY7SuwgulLE6v" xmlns="http://www.w3.org/2000/svg" viewBox="0 0 257.58 139.08"><defs><style>.cls-1{fill:#6c63ff;}.cls-2{fill:#fff;}</style></defs><title>intelligence-game-icon-mor</title><rect id="_lkV064ZWNzvp39Y5MFM8q" data-name=" lkV064ZWNzvp39Y5MFM8q" class="cls-1" width="257.58" height="139.08"/><path id="_pRvhvWZWmtkEIYKovN-Zg" data-name=" pRvhvWZWmtkEIYKovN-Zg" class="cls-2" d="M207.76,156.76a38.38,38.38,0,1,0,37.87,44.44h21.21a38.37,38.37,0,1,0,37.88-44.44Zm0,18.18a4,4,0,0,1,4,4V191.1h12.12a4,4,0,1,1,0,8.08H211.8V211.3a4,4,0,0,1-8.08,0V199.18H191.59a4,4,0,1,1,0-8.08h12.13V179A4,4,0,0,1,207.76,174.94Zm97,0a6.06,6.06,0,1,1-6.06,6.06A6.07,6.07,0,0,1,304.72,174.94Zm-14.14,14.14a6.06,6.06,0,1,1-6.06,6.06A6.07,6.07,0,0,1,290.58,189.08Zm28.28,0a6.06,6.06,0,1,1-6.06,6.06A6.07,6.07,0,0,1,318.86,189.08Zm-14.14,14.14a6.06,6.06,0,1,1-6.06,6.06A6.07,6.07,0,0,1,304.72,203.22Z" transform="translate(-127.45 -124.73)"/></svg>