<?xml version="1.0" encoding="utf-8"?>
<!-- Generator: Adobe Illustrator 23.1.0, SVG Export Plug-In . SVG Version: 6.00 Build 0)  -->
<svg version="1.1" id="katman_1" xmlns="http://www.w3.org/2000/svg" xmlns:xlink="http://www.w3.org/1999/xlink" x="0px" y="0px"
	 viewBox="0 0 257.6 139.1" style="enable-background:new 0 0 257.6 139.1;" xml:space="preserve">
<style type="text/css">
	.st0{display:none;}
	.st1{display:inline;fill:#6C63FF;}
	.st2{display:inline;fill:#FFFFFF;}
	.st3{fill:#6C63FF;}
	.st4{display:none;fill:#6C63FF;}
	.st5{fill:#FFFFFF;}
</style>
<g id="orjinal" class="st0">
	<rect id="_lkV064ZWNzvp39Y5MFM8q" class="st1" width="257.6" height="139.1"/>
	<path id="_pRvhvWZWmtkEIYKovN-Zg" class="st2" d="M79.4,31.2c-21,0-38,17-38,38s17,38,38,38c18.7,0,34.6-13.6,37.5-32h21
		c3.3,20.7,22.8,34.8,43.5,31.5s34.8-22.8,31.5-43.5c-3-18.4-18.9-32-37.5-32L79.4,31.2z M79.4,49.2c2.2,0,4,1.8,4,4v12h12
		c2.2,0,4,1.8,4,4s-1.8,4-4,4h-12v12c0,2.2-1.8,4-4,4s-4-1.8-4-4v-12h-12c-2.2,0-4-1.8-4-4s1.8-4,4-4h12v-12
		C75.4,51,77.1,49.2,79.4,49.2L79.4,49.2z M175.4,49.2c3.3,0,6,2.7,6,6s-2.7,6-6,6s-6-2.7-6-6l0,0C169.4,51.9,172.1,49.2,175.4,49.2
		L175.4,49.2z M161.4,63.2c3.3,0,6,2.7,6,6s-2.7,6-6,6s-6-2.7-6-6l0,0C155.4,65.9,158.1,63.2,161.4,63.2L161.4,63.2z M189.4,63.2
		c3.3,0,6,2.7,6,6s-2.7,6-6,6s-6-2.7-6-6l0,0C183.4,65.9,186.1,63.2,189.4,63.2L189.4,63.2z M175.4,77.2c3.3,0,6,2.7,6,6s-2.7,6-6,6
		s-6-2.7-6-6l0,0C169.4,79.9,172.1,77.2,175.4,77.2L175.4,77.2z"/>
</g>
<g id="logo-circle-full" class="st0">
	<ellipse class="st1" cx="128.8" cy="69.5" rx="128.8" ry="69.5"/>
	<rect id="_lkV064ZWNzvp39Y5MFM8q_2_" x="0" class="st3" width="257.6" height="139.1"/>
	<path id="_pRvhvWZWmtkEIYKovN-Zg_2_" class="st2" d="M79.4,31.2c-21,0-38,17-38,38s17,38,38,38c18.7,0,34.6-13.6,37.5-32h21
		c3.3,20.7,22.8,34.8,43.5,31.5s34.8-22.8,31.5-43.5c-3-18.4-18.9-32-37.5-32L79.4,31.2z M79.4,49.2c2.2,0,4,1.8,4,4v12h12
		c2.2,0,4,1.8,4,4s-1.8,4-4,4h-12v12c0,2.2-1.8,4-4,4s-4-1.8-4-4v-12h-12c-2.2,0-4-1.8-4-4s1.8-4,4-4h12v-12
		C75.4,51,77.1,49.2,79.4,49.2C79.3,49.2,79.4,49.2,79.4,49.2z M175.4,49.2c3.3,0,6,2.7,6,6s-2.7,6-6,6s-6-2.7-6-6l0,0
		C169.4,51.9,172.1,49.2,175.4,49.2L175.4,49.2z M161.4,63.2c3.3,0,6,2.7,6,6s-2.7,6-6,6s-6-2.7-6-6l0,0
		C155.4,65.9,158.1,63.2,161.4,63.2L161.4,63.2z M189.4,63.2c3.3,0,6,2.7,6,6s-2.7,6-6,6s-6-2.7-6-6l0,0
		C183.4,65.9,186.1,63.2,189.4,63.2L189.4,63.2z M175.4,77.2c3.3,0,6,2.7,6,6s-2.7,6-6,6s-6-2.7-6-6l0,0
		C169.4,79.9,172.1,77.2,175.4,77.2L175.4,77.2z"/>
</g>
<g id="logo-circle-32">
	<ellipse class="st3" cx="128.8" cy="70.2" rx="62.8" ry="63.8"/>
	<rect id="_lkV064ZWNzvp39Y5MFM8q_1_" x="1.4" y="1" class="st4" width="257.6" height="139.1"/>
	<path id="_pRvhvWZWmtkEIYKovN-Zg_1_" class="st5" d="M108.7,54.3c-8.8,0-15.9,7.1-15.9,15.9s7.1,15.9,15.9,15.9
		c7.8,0,14.5-5.7,15.7-13.4h8.8c1.4,8.7,9.5,14.6,18.2,13.2s14.6-9.5,13.2-18.2c-1.2-7.7-7.9-13.4-15.7-13.4L108.7,54.3z
		 M108.7,61.8c0.9,0,1.7,0.7,1.7,1.7v5h5c0.9,0,1.7,0.7,1.7,1.7c0,0.9-0.7,1.7-1.7,1.7h-5v5c0,0.9-0.7,1.7-1.7,1.7s-1.7-0.7-1.7-1.7
		v-5h-5c-0.9,0-1.7-0.7-1.7-1.7c0-0.9,0.7-1.7,1.7-1.7h5v-5C107,62.6,107.8,61.8,108.7,61.8L108.7,61.8z M148.9,61.8
		c1.4,0,2.5,1.1,2.5,2.5c0,1.4-1.1,2.5-2.5,2.5s-2.5-1.1-2.5-2.5l0,0C146.4,62.9,147.5,61.8,148.9,61.8L148.9,61.8z M143,67.6
		c1.4,0,2.5,1.1,2.5,2.5s-1.1,2.5-2.5,2.5s-2.5-1.1-2.5-2.5l0,0C140.5,68.8,141.6,67.7,143,67.6L143,67.6z M154.8,67.6
		c1.4,0,2.5,1.1,2.5,2.5s-1.1,2.5-2.5,2.5s-2.5-1.1-2.5-2.5l0,0C152.3,68.8,153.4,67.7,154.8,67.6L154.8,67.6z M148.9,73.5
		c1.4,0,2.5,1.1,2.5,2.5s-1.1,2.5-2.5,2.5s-2.5-1.1-2.5-2.5l0,0C146.4,74.6,147.5,73.5,148.9,73.5L148.9,73.5z"/>
</g>
</svg>
