<svg xmlns="http://www.w3.org/2000/svg" viewBox="0 0 125.6 127.6"><defs><style>.cls-1{fill:#6c63ff;}.cls-2{fill:#fff;}</style></defs><title>1logo100x</title><g id="katman_2" data-name="katman 2"><g id="katman_1-2" data-name="katman 1"><g id="logo-circle-32"><ellipse class="cls-1" cx="62.8" cy="63.8" rx="62.8" ry="63.8"/><path id="_pRvhvWZWmtkEIYKovN-Zg" data-name=" pRvhvWZWmtkEIYKovN-Zg" class="cls-2" d="M42.7,47.9A15.9,15.9,0,1,0,58.4,66.3h8.8A15.9,15.9,0,1,0,82.9,47.9Zm0,7.5a1.69,1.69,0,0,1,1.7,1.7v5h5a1.7,1.7,0,1,1,0,3.4h-5v5a1.69,1.69,0,0,1-1.7,1.7A1.63,1.63,0,0,1,41,70.5v-5H36a1.7,1.7,0,0,1,0-3.4h5v-5a1.75,1.75,0,0,1,1.7-1.7Zm40.2,0a2.5,2.5,0,1,1-2.5,2.5h0a2.48,2.48,0,0,1,2.5-2.5ZM77,61.2a2.5,2.5,0,1,1-2.5,2.5h0A2.61,2.61,0,0,1,77,61.2Zm11.8,0a2.5,2.5,0,1,1-2.5,2.5h0a2.61,2.61,0,0,1,2.5-2.5Zm-5.9,5.9a2.5,2.5,0,1,1-2.5,2.5h0a2.48,2.48,0,0,1,2.5-2.5Z"/></g></g></g></svg>